<svg width="512" height="512" viewBox="0 0 512 512" fill="none" xmlns="http://www.w3.org/2000/svg">
  <defs>
    <linearGradient id="paint0_linear" x1="74" y1="74" x2="438" y2="438" gradientUnits="userSpaceOnUse">
      <stop stop-color="#6366F1" /> <stop offset="1" stop-color="#A855F7" /> </linearGradient>
    
    <linearGradient id="paint1_linear" x1="196" y1="196" x2="316" y2="316" gradientUnits="userSpaceOnUse">
      <stop stop-color="#10B981" /> <stop offset="1" stop-color="#0EA5E9" /> </linearGradient>
    
    <filter id="glow" x="-50%" y="-50%" width="200%" height="200%">
      <feGaussianBlur stdDeviation="12" result="coloredBlur"/>
      <feMerge>
          <feMergeNode in="coloredBlur"/>
          <feMergeNode in="SourceGraphic"/>
      </feMerge>
    </filter>
  </defs>

  <g filter="url(#glow)">
      <path d="M256 448C149.969 448 64 362.031 64 256C64 149.969 149.969 64 256 64C362.031 64 448 149.969 448 256C448 362.031 362.031 448 256 448ZM256 112C176.469 112 112 176.469 112 256C112 335.531 176.469 400 256 400C335.531 400 400 335.531 400 256C400 176.469 335.531 112 256 112Z" fill="url(#paint0_linear)" fill-opacity="0.1"/>
      <path d="M436.6 200C427.4 163.8 406.6 131.6 377.6 107.2C372.2 102.6 371.6 94.6 376.2 89.2C380.8 83.8 388.8 83.2 394.2 87.8C427.4 115.8 451.2 152.8 461.8 194.4C463.4 201.2 459.2 208.2 452.4 209.8C445.6 211.4 438.6 207.2 436.6 200Z" fill="url(#paint0_linear)"/>
      <path d="M75.4001 312C84.6001 348.2 105.4 380.4 134.4 404.8C139.8 409.4 140.4 417.4 135.8 422.8C131.2 428.2 123.2 428.8 117.8 424.2C84.6001 396.2 60.8001 359.2 50.2001 317.6C48.6001 310.8 52.8001 303.8 59.6001 302.2C66.4001 300.6 73.4001 304.8 75.4001 312Z" fill="url(#paint0_linear)"/>
      <path fill-rule="evenodd" clip-rule="evenodd" d="M256 48C141.125 48 48 141.125 48 256C48 370.875 141.125 464 256 464C370.875 464 464 370.875 464 256C464 141.125 370.875 48 256 48ZM256 88C348.787 88 424 163.213 424 256C424 348.787 348.787 424 256 424C163.213 424 88 348.787 88 256C88 163.213 163.213 88 256 88Z" fill="url(#paint0_linear)"/>
      
      <circle cx="256" cy="68" r="12" fill="#A855F7"/>
      <circle cx="256" cy="444" r="12" fill="#6366F1"/>
      <circle cx="68" cy="256" r="12" fill="#6366F1"/>
      <circle cx="444" cy="256" r="12" fill="#A855F7"/>

      <g transform="rotate(45 256 256)">
          <rect x="192" y="192" width="128" height="128" rx="40" fill="url(#paint1_linear)" />
          <path d="M256 224V288M224 256H288" stroke="white" stroke-width="8" stroke-linecap="round"/>
      </g>
  </g>
</svg>
